<svg width="40" height="41" viewBox="0 0 40 41" fill="none" xmlns="http://www.w3.org/2000/svg">
<rect y="0.330017" width="40" height="40" rx="20" fill="#F2F4F7"/>
<path d="M15.6333 28.6633H24.3667C26.6667 28.6633 27.5833 27.255 27.6917 25.5383L28.125 18.655C28.2417 16.855 26.8083 15.33 25 15.33C24.4917 15.33 24.025 15.0383 23.7917 14.5883L23.1917 13.38C22.8083 12.6217 21.8083 11.9967 20.9583 11.9967H19.05C18.1917 11.9967 17.1917 12.6217 16.8083 13.38L16.2083 14.5883C15.975 15.0383 15.5083 15.33 15 15.33C13.1917 15.33 11.7583 16.855 11.875 18.655L12.3083 25.5383C12.4083 27.255 13.3333 28.6633 15.6333 28.6633Z" stroke="#101828" stroke-width="1.5" stroke-linecap="round" stroke-linejoin="round"/>
<path d="M18.75 16.9967H21.25" stroke="#101828" stroke-width="1.5" stroke-linecap="round" stroke-linejoin="round"/>
<path d="M20 25.33C21.4917 25.33 22.7084 24.1134 22.7084 22.6217C22.7084 21.13 21.4917 19.9134 20 19.9134C18.5084 19.9134 17.2917 21.13 17.2917 22.6217C17.2917 24.1134 18.5084 25.33 20 25.33Z" stroke="#101828" stroke-width="1.5" stroke-linecap="round" stroke-linejoin="round"/>
</svg>
