<svg width="64" height="64" viewBox="0 0 64 64" fill="none" xmlns="http://www.w3.org/2000/svg">
<path d="M32 5.33333C17.3066 5.33333 5.33331 17.3067 5.33331 32C5.33331 46.6933 17.3066 58.6667 32 58.6667C46.6933 58.6667 58.6666 46.6933 58.6666 32C58.6666 17.3067 46.6933 5.33333 32 5.33333ZM42.6666 34H34V42.6667C34 43.76 33.0933 44.6667 32 44.6667C30.9066 44.6667 30 43.76 30 42.6667V34H21.3333C20.24 34 19.3333 33.0933 19.3333 32C19.3333 30.9067 20.24 30 21.3333 30H30V21.3333C30 20.24 30.9066 19.3333 32 19.3333C33.0933 19.3333 34 20.24 34 21.3333V30H42.6666C43.76 30 44.6666 30.9067 44.6666 32C44.6666 33.0933 43.76 34 42.6666 34Z" fill="#101828"/>
</svg>
